<?xml version="1.0" encoding="UTF-8"?><svg id="Layer_1" xmlns="http://www.w3.org/2000/svg" viewBox="0 0 800 400"><defs><style>.cls-1{fill:#fdfffc;stroke-width:0px;}</style></defs><path class="cls-1" d="M30.97,163.71l.84-5.81,18,2.63-.84,5.81-18-2.63ZM39.97,190.09l-3.51-4.69,14.62-10.94,3.51,4.69-14.62,10.94ZM43.28,138.59l4.69-3.51,10.91,14.58-4.69,3.51-10.91-14.58ZM75.34,176.56c-1.43,1.07-2.97,1.82-4.61,2.23-1.62.4-3.33.46-5.16.2-1.78-.26-3.39-.81-4.85-1.68-1.41-.85-2.66-2.01-3.76-3.47-1.07-1.43-1.82-2.95-2.24-4.54-.42-1.64-.49-3.35-.24-5.13.28-1.8.84-3.41,1.68-4.85.86-1.46,2.01-2.72,3.44-3.79s2.97-1.82,4.61-2.23c1.62-.39,3.32-.47,5.13-.24,1.78.26,3.39.82,4.85,1.68,1.41.86,2.65,2,3.73,3.43,1.09,1.46,1.85,2.99,2.27,4.58.41,1.64.49,3.35.24,5.13-.26,1.82-.81,3.45-1.65,4.89-.86,1.46-2.01,2.72-3.44,3.79ZM65.04,202.5l-5.81-.84,2.61-18.11,5.81.84-2.61,18.11ZM72.97,148.46l-5.81-.84,2.6-18.04,5.81.84-2.6,18.04ZM76,182.35l4.69-3.51,10.94,14.62-4.69,3.51-10.94-14.62ZM83.77,157.51l-3.51-4.69,14.62-10.94,3.51,4.69-14.62,10.94ZM85.03,171.51l.84-5.81,18.07,2.64-.84,5.81-18.07-2.64Z"/><path class="cls-1" d="M166.4,139.03c-1.43.54-3.88,1.21-7.33,2.01-1.52.39-2.72.76-3.61,1.09-1.16.43-3.93,1.75-8.33,3.95-2.17,1.09-3.75,1.82-4.76,2.2l-4.53,1.69c-2.53.95-4.7.73-6.5-.65l-2.38,6.05-10.11,9.77,1.32-14.46c-.39-.48-.76-1.21-1.13-2.18-.3-.79-.5-1.98-.61-3.58l-.81-11.79c-.22-3.19-.14-5.44.24-6.76,1.42-4.84,3.5-9.32,6.24-13.44,1.42-2.16,3-4.02,4.74-5.58.89-.78,1.88-1.38,2.98-1.79,1.58-.59,3.62-.45,6.1.43l4.07-10.44c.8-2.04,2.1-3.39,3.9-4.07,1.13-.42,2.47.05,4.02,1.42.68.61,1.19,1.36,1.52,2.25l-4.95,13.27,11.64,2.69c1.67.38,3.12.35,4.34-.11,1.65-.62,2.39-1.41,2.23-2.4l10.29-3.85c4.21,2.98,7.34,7.21,9.39,12.7,2.36,6.31,3.44,12.09,3.25,17.34l-11.34,4.24-1.85-4.94c-2.9,2.37-5.59,4.02-8.06,4.94ZM127.89,141.28c.58-1.5.7-4.12.35-7.85-.09-.98-.14-1.72-.16-2.23l8.92-22.72-2.16-.76c-.68-.23-1.49-.17-2.43.18-2.68,1-6.29,6.4-10.83,16.2-1.04,2.23-1.45,5.23-1.22,9.01l.2,3.31c2.13,1.33,3.42,2.58,3.86,3.77,1.01,2.71,1.06,4.87.12,6.47,1.12-.73,2.24-2.52,3.36-5.38ZM121.2,147.23c.86-.22,1.37-1.03,1.53-2.45.13-1.13.02-2.18-.34-3.15-.38-.93-.91-1.55-1.58-1.86l.39,7.46ZM122.67,152.98l-.55,5.37,3.62-3.44c-.62-1.02-1.65-1.66-3.07-1.93ZM134.1,139.07c-3.12,2.07-4.31,4.08-3.58,6.03.54,1.43,1.71,2.33,3.51,2.7,1.17.26,2.43.18,3.78-.21.18-1.66-.05-3.35-.69-5.06-.6-1.62-1.61-2.77-3.01-3.46ZM163.12,113.36c-1.59.59-2.85.79-3.79.58l-13.75-3.04-2.99,8.05c1.86,4.97,2,9.21.43,12.72,1.9-.78,3.95-2.31,6.15-4.59.61.23,1.03.67,1.29,1.34.21.55-.15,1.27-1.07,2.17-2.15,2.16-5.19,3.97-9.12,5.44-1.89.71-3.2,1.21-3.92,1.52,1.48.8,2.63,2.29,3.44,4.45.49,1.31.69,2.77.59,4.37,3.51-1.31,6.31-2.59,8.42-3.83,1.8-1.05,3.84-2.01,6.12-2.86,1.22-.46,3.36-1.05,6.42-1.78,1.47-.34,2.94-.79,4.4-1.33,1.55-.58,4.21-2.22,7.97-4.91.23-3.39-.27-6.71-1.49-9.97-1.21-3.23-3.29-6.48-6.25-9.76-.68.5-1.63.98-2.85,1.43ZM139.95,132.97c1.48-3.75,1.83-7.27,1.06-10.56l-4.08,11.69,3.02-1.13ZM167.88,110.07c2.82,2.91,5.04,6.51,6.65,10.81,1.42,3.81,2.04,7.6,1.85,11.35l1.3,3.48,7.23-2.7c.37-3.47-.63-8.38-3-14.72-1.53-4.09-3.94-7.67-7.25-10.74l-6.77,2.53Z"/><path class="cls-1" d="M221.98,64.19c5.04-1.05,9.95-1.09,14.74-.12,4.74.88,9.27,2.76,13.59,5.65,4.42,2.87,7.96,6.29,10.61,10.26,2.72,3.99,4.62,8.55,5.69,13.68,1.03,4.97,1.1,9.83.19,14.57-.85,4.7-2.73,9.25-5.64,13.64-2.81,4.38-6.22,7.91-10.21,10.6-4.01,2.79-8.53,4.72-13.56,5.76-5.04,1.05-9.95,1.09-14.74.12-4.74-.88-9.27-2.76-13.59-5.65-4.42-2.87-7.96-6.29-10.61-10.26-2.72-3.99-4.6-8.47-5.64-13.44-1.07-5.13-1.15-10.07-.24-14.81.85-4.7,2.73-9.25,5.64-13.64,2.81-4.38,6.22-7.91,10.21-10.6,4.01-2.79,8.53-4.72,13.56-5.76ZM229.68,101.24c2.13-.44,4.04-1.26,5.73-2.44,1.69-1.15,3.12-2.64,4.3-4.49,1.25-1.96,2.05-3.88,2.39-5.78.38-2.01.35-4.05-.08-6.12-.45-2.17-1.25-4.1-2.4-5.79-1.07-1.61-2.56-3.06-4.5-4.35-1.82-1.22-3.73-2.02-5.74-2.4-2.01-.41-4.09-.4-6.22.05-4.14.86-7.96,2.49-11.45,4.88-3.29,2.25-6.17,5.24-8.66,8.98-2.38,3.59-3.96,7.42-4.74,11.51-.76,4.02-.69,8.19.21,12.52.84,4.05,2.42,7.82,4.75,11.33,2.13,3.21,5.11,6.1,8.93,8.67,3.59,2.38,7.43,3.98,11.52,4.79,4.16.8,8.31.78,12.46-.05-2.14.44-4.21.46-6.22.05-2.01-.38-3.92-1.18-5.74-2.4-1.93-1.29-3.43-2.74-4.5-4.35-1.15-1.69-1.94-3.57-2.37-5.64-.45-2.17-.49-4.25-.11-6.26.34-1.9,1.13-3.83,2.39-5.78,1.18-1.84,2.61-3.34,4.3-4.49,1.68-1.18,3.59-1.99,5.73-2.44ZM225.43,80.83c.67-.14,1.3-.14,1.9,0,.63.14,1.23.38,1.8.72.54.38,1,.82,1.37,1.31.34.53.58,1.13.72,1.79.13.64.15,1.27.04,1.89-.14.59-.38,1.19-.72,1.8-.38.55-.84,1.01-1.36,1.38-.5.34-1.08.57-1.75.71-.67.14-1.3.15-1.89.04-.63-.14-1.23-.38-1.8-.72-.55-.42-1.01-.87-1.38-1.36-.34-.53-.58-1.11-.71-1.75-.14-.67-.16-1.31-.05-1.93.14-.59.39-1.18.73-1.75.39-.54.84-1,1.36-1.38.49-.37,1.07-.62,1.74-.76ZM231.95,112.14c-.67.14-1.25.39-1.74.76-.52.38-.97.83-1.36,1.38-.35.57-.59,1.15-.73,1.75-.1.62-.09,1.26.05,1.93.13.64.37,1.22.71,1.75.37.49.83.94,1.38,1.36.57.35,1.17.59,1.8.72.59.11,1.22.1,1.89-.04.67-.14,1.25-.38,1.75-.71.52-.37.97-.83,1.36-1.38.34-.6.58-1.2.72-1.8.1-.62.09-1.25-.04-1.89-.14-.67-.38-1.27-.72-1.79-.37-.49-.82-.93-1.37-1.31-.57-.35-1.17-.59-1.8-.72-.6-.14-1.23-.14-1.9,0Z"/><path class="cls-1" d="M305.15,114.66c-.3-3.14-1.6-6.03-3.91-8.65-2.6-2.89-4.06-6.14-4.41-9.74l-.7-7.34c-2.12-.94-3.35-3.26-3.7-6.96-.27-2.82.06-5.35,1-7.6,1.38-3.4,3.28-5.22,5.71-5.45,1.59-.15,3.15.5,4.7,1.96.51-.83,1.41-1.31,2.71-1.43,2.49-.24,4.14.77,4.94,3.01.82-.7,1.87-1.11,3.17-1.23,1.17-.11,2.5.53,4.01,1.93l-1.32-13.9c-.35-3.69,0-6.44,1.03-8.24,1.09-1.9,2.44-2.93,4.02-3.08,1.68-.16,3.2.5,4.55,1.97,1.54,1.72,2.51,4.76,2.93,9.14l2.57,27.12c2,1.84,3.1,3.78,3.3,5.82.21,2.24-.93,5.53-3.43,9.89-2.21,3.91-3.17,7.4-2.88,10.47l3.74-.35,1.51,15.9-35,3.32-1.51-15.9,6.95-.66ZM301.94,73.03c-.67-.88-1.38-1.29-2.13-1.22-1.62.15-2.83,1.15-3.64,2.99-1.18,2.7-1.71,4.77-1.57,6.23.15,1.56.58,2.97,1.29,4.24.55.96,1.29,1.4,2.23,1.31,1.07-.1,1.52-1.08,1.34-2.92-.17-1.81,0-3.68.5-5.59.48-1.81,1.14-3.49,1.97-5.04ZM326.89,112.15l.28-4.78c1.13-2.92,2.21-5.31,3.24-7.17,1.62-2.96,2.32-5.55,2.11-7.75-.16-1.68-2.03-4.16-5.61-7.41-4.37-4-7.14-5.95-8.3-5.83-.75.07-1.34.73-1.77,1.98-.28.81-.34,2.09-.18,3.84.27,2.82,1.47,4.65,3.61,5.49,2.62,1.06,3.98,2.17,4.09,3.34.08.81-.24,1.25-.95,1.32-.65.06-1.58-.42-2.79-1.45-.93-.79-1.83-1.15-2.7-1.07-.84.08-1.59.97-2.25,2.67-.71,1.83-.98,3.66-.81,5.47.11,1.2.52,2.39,1.22,3.56.31.49.5,1.18.59,2.05.09.94-.04,1.43-.4,1.46-.49.05-1.33-.72-2.52-2.31-.67-.92-1.1-2.3-1.28-4.15-.16-1.72-.21-3.38-.13-4.99-4.44.42-6.83-1.22-7.18-4.91-2.24.21-3.83-.72-4.78-2.78l-1.8.17.68,7.19c.19,2.01.96,3.87,2.29,5.57,2.68,3.47,4.16,5.46,4.44,5.96.78,1.37,1.31,3.47,1.58,6.32l19.3-1.78ZM309.66,74.3c-.6-1.18-1.41-1.73-2.41-1.63-1.33.13-2.46,1.18-3.38,3.17-1.58,3.39-2.29,5.87-2.14,7.46.37,3.95,1.32,5.86,2.85,5.71.71-.07,1.14-1.06,1.29-2.97.07-1.02.61-3.25,1.62-6.68.66-2.32,1.39-4.01,2.17-5.06ZM303.62,118.14l.48,5.1,26.64-2.53-.48-5.1-26.64,2.53ZM315.23,89.57c-.12-1.23-.3-2.11-.55-2.65-.53-1.06-.78-2.07-.78-3.02-.01-2.55.39-4.38,1.2-5.51.43-.63,1.22-1.26,2.37-1.89-.7-1.47-1.63-2.15-2.79-2.04-1.2.11-2.45,1.23-3.75,3.35-.65,1.08-1.41,3.57-2.28,7.48-.41,1.84-.57,3.32-.46,4.46.19,1.98.79,3.34,1.81,4.09.49.38,1.21.52,2.15.43,1-.1,1.75-.39,2.22-.9.74-.79,1.03-2.06.87-3.81ZM329.53,83.11l-2.29-24.16c-.37-3.86-.92-6.11-1.67-6.76-1.07-.91-2.02-1.33-2.87-1.25-.68.06-1.44.84-2.28,2.33-.56,1-.74,2.56-.54,4.66l1.81,19.05c3.2,1.36,5.82,3.41,7.84,6.12Z"/><path class="cls-1" d="M400.58,46.78l5.56,16.78,13.31-11.58-3.58,17.31,17.36-3.36-11.75,13.16,16.66,5.72-16.74,5.56,11.58,13.31-17.31-3.58,3.36,17.36-13.16-11.75-5.77,16.71-5.56-16.78-13.31,11.58,3.58-17.31-17.36,3.36,11.75-13.16-16.66-5.77,16.74-5.51-11.58-13.31,17.31,3.58-3.36-17.36,13.16,11.75,5.77-16.71Z"/><path class="cls-1" d="M464.99,86.56c.17-1.78.93-3.41,2.28-4.88.73-.16,1.44-.71,2.12-1.66l2.96-4.28c.79-1.13,1.82-1.8,3.08-2.01.07-.03.13-.04.2-.03l.19.07c-.7-1.6-1.52-4.51-2.46-8.72-.69-3.04-1.31-5.16-1.85-6.36-.92-2.05-1.32-3.66-1.21-4.82.09-.91.54-1.76,1.37-2.57.97-.95,2.04-1.38,3.21-1.26.52.05,1.06.18,1.63.4,1.52.54,2.51,1.25,2.98,2.15,2.06,3.83,4.01,8.88,5.87,15.17l1.41,4.79c.37,1.25.75,2.23,1.14,2.95.67-.49,1.2-1.75,1.58-3.77.3-1.41.66-2.6,1.08-3.58.21-.5.72-2.91,1.52-7.21.34-1.86.52-2.89.54-3.09.03-.36.05-.7.05-1.03-.06-1.38.55-2.66,1.84-3.85.97-.89,2.12-1.27,3.44-1.14,1.78.17,3.05,1.25,3.81,3.25.34.88.5,1.62.48,2.2-.07,4.9-.29,8.78-.67,11.66l-1.82,14.54c-.12.9-.19,2.03-.22,3.36v1.08c.01,1.18-.11,3.19-.38,6.05-.11,1.17-.25,2.45-.41,3.83l-.43,6.04c-.09.94-.68,3.53-1.77,7.78-.16.61-.45,3.19-.88,7.76-.19,1.98-.38,4.2-.58,6.66l-26.54-2.52.84-8.85c.05-.58.05-1.42,0-2.5-.13-1.78-.69-3.81-1.68-6.09-1.32-3-1.9-5.12-1.75-6.35.31-2.59.13-5.37-.53-8.34-.41-1.87-.55-3.49-.42-4.85ZM468.97,83.9c-.55.6-.94,1.66-1.18,3.17,2.49,2.36,4.26,4.51,5.32,6.44.46.34.87.52,1.22.56.52.05.93-.21,1.25-.76.16-.31.26-.63.29-.95.06-.58-.08-1.17-.42-1.76-.23-.38-.51-.69-.84-.91l-5.36-5.56-.27-.22ZM499.46,57.71c.08-1.86-.51-2.84-1.78-2.96-1.13-.11-1.87.93-2.21,3.13l-.75,5.37c-.12.97-.43,2.31-.92,4.03l-2.6,9.27c-.25.92-.74,1.45-1.47,1.58l-2.69.48-1.17-.65c-.25-.45-.92-2.33-2.01-5.63l-.65-1.97c-1.12-3.7-2.68-8.09-4.69-13.15-.69-1.7-1.33-2.82-1.94-3.37-.51-.44-1-.68-1.45-.73-.55-.05-.97.09-1.27.42-.25.17-.38.44-.42.79-.09,1,.24,2.46,1.01,4.36.34.88.74,2.18,1.2,3.89l3.45,12.79,6.15,5.54c2.86,2.56,5.67,5.49,8.43,8.8.09.4.13.73.1.99-.06.62-.42.96-1.08,1.03-.17.02-.31.02-.44,0-.71-.07-1.33-.45-1.85-1.16-.18-.21-.3-.44-.38-.67-1.36-1.83-3.78-4.28-7.25-7.36l-2.35-2.09c-.22-.12-.96-.75-2.23-1.88-.9-.8-1.67-1.24-2.28-1.3-.39-.04-.71.1-.97.4-.18.21-.34.51-.48.89.19.74,1.02,1.8,2.49,3.18,1.2,1.16,1.98,2.05,2.35,2.67.22.41,1.01,1.45,2.35,3.12,1.46,1.87,2.13,3.59,2.01,5.15-.11,1.17-.6,2.74-1.48,4.71-.62,1.41-1,2.64-1.13,3.67v.1c-.16,1.59.54,3.5,2.09,5.74.66.95,1.36,1.73,2.08,2.36,1.63,1.4,2.57,2.39,2.81,2.96.08.2.11.39.09.55-.05.52-.54.88-1.48,1.09-3.86-2.04-6.39-4.87-7.58-8.52-.15-.5-.32-.93-.52-1.28-.38-.79-.51-1.55-.37-2.29l.69-3.61c.11-.48.07-.91-.12-1.29-.2-.35-.53-.62-1-.83-.98.72-2.12,1.02-3.42.9-.45-.04-.92-.14-1.4-.28-.76-.24-1.4-.59-1.91-1.06-1.38-2.32-2.22-3.5-2.51-3.52-.13-.01-.17.05-.12.18.22,1.13.32,3.01.3,5.62-.02,1.6.1,2.77.35,3.52l3.48,10.83c0,.29,0,.62-.04.98l-.78,7.72,20.76,1.97.8-8.9c.18-1.88.54-3.58,1.07-5.1.62-1.74,1.02-3.65,1.18-5.72l.22-3.32c.28-1.87.5-3.66.66-5.38.27-2.85.37-5.47.31-7.87-.03-1.77.04-3.4.22-4.88l2.08-15.69c.08-.55.16-1.65.22-3.31l.23-4.98ZM472.3,80.78l-.92.89c1,1.5,2.37,3.07,4.11,4.71,1.63,1.76,2.63,3.6,3.01,5.53.09.43.13.85.13,1.24.5.6.91.92,1.23.95.36.03.62-.2.8-.71.09-.29.15-.57.18-.87.06-.68-.06-1.41-.38-2.19-.13-.31-.29-.55-.47-.73-3.15-3.99-5.72-6.94-7.7-8.82Z"/><path class="cls-1" d="M607.48,108.98c-1.05,5.04-3.01,9.65-5.87,13.84-2.8,4.01-6.26,7.37-10.4,10.08-4.14,2.71-8.6,4.55-13.39,5.52-4.99.96-10,.91-15.03-.14-5.04-1.05-9.65-3.01-13.84-5.87-4.01-2.8-7.37-6.26-10.08-10.4-2.71-4.14-4.55-8.6-5.52-13.39-.96-4.99-.91-10,.14-15.03,1.05-5.04,3.01-9.65,5.87-13.84,2.8-4.01,6.26-7.37,10.4-10.08,4.14-2.71,8.6-4.55,13.39-5.52,4.99-.96,10-.91,15.03.14,5.04,1.05,9.65,3.01,13.84,5.87,4.01,2.8,7.37,6.26,10.08,10.4,2.71,4.14,4.55,8.6,5.52,13.39.96,4.99.91,10-.14,15.03ZM602.7,107.98c.92-4.4.96-8.76.13-13.09-.83-4.16-2.43-8.05-4.8-11.67s-5.3-6.64-8.79-9.06c-3.64-2.49-7.66-4.19-12.05-5.1-4.4-.92-8.76-.96-13.09-.13-4.16.83-8.05,2.43-11.67,4.8-3.62,2.37-6.64,5.3-9.06,8.79-2.49,3.64-4.19,7.66-5.1,12.05-.92,4.4-.96,8.76-.13,13.09.83,4.16,2.43,8.05,4.8,11.67,2.37,3.62,5.3,6.64,8.79,9.06,3.64,2.49,7.66,4.19,12.05,5.1,4.4.92,8.76.96,13.09.13,4.16-.83,8.05-2.43,11.67-4.8,3.62-2.37,6.64-5.3,9.06-8.79,2.49-3.64,4.19-7.66,5.1-12.05ZM590.68,114.91c-1.85,2.67-4.15,4.91-6.88,6.7-2.73,1.76-5.67,2.96-8.83,3.6-3.02.6-6.17.56-9.45-.12-3.44-.72-6.35-1.94-8.71-3.66-2.74-2-4.96-4.28-6.66-6.82-1.79-2.73-3-5.7-3.64-8.89l4.78-.9c.53,2.57,1.5,4.93,2.91,7.09,1.42,2.12,3.2,3.94,5.35,5.45,2.03,1.42,4.35,2.4,6.97,2.95,2.71.56,5.23.59,7.56.08,2.69-.6,5.05-1.56,7.08-2.87,2.16-1.41,3.99-3.19,5.5-5.34l4.02,2.73ZM558.88,83.2c.77-.17,1.57-.17,2.39,0,.83.17,1.56.49,2.19.96.63.46,1.18,1.03,1.64,1.69.45.73.76,1.47.93,2.24.14.76.12,1.56-.05,2.38-.17.8-.46,1.52-.9,2.16-.55.75-1.14,1.31-1.75,1.68-.69.42-1.41.72-2.18.89s-1.57.17-2.39,0c-.83-.17-1.56-.49-2.2-.96-.63-.46-1.18-1.03-1.64-1.69-.45-.72-.76-1.47-.93-2.24-.14-.76-.13-1.54.04-2.34.17-.83.47-1.56.91-2.21.55-.75,1.14-1.31,1.75-1.68.69-.42,1.41-.72,2.18-.89ZM583.74,88.37c.77-.17,1.57-.17,2.39,0,.83.17,1.56.49,2.2.96.63.46,1.18,1.03,1.64,1.69.45.72.76,1.47.93,2.24.14.76.12,1.56-.05,2.38-.17.8-.47,1.52-.9,2.16-.46.64-1.05,1.2-1.75,1.68-.69.42-1.41.72-2.18.89-.77.17-1.57.17-2.39,0-.83-.17-1.56-.49-2.2-.96s-1.18-1.03-1.64-1.69c-.45-.72-.76-1.47-.93-2.24-.14-.76-.13-1.54.04-2.34.17-.83.48-1.56.91-2.21.46-.63,1.05-1.2,1.75-1.68.69-.42,1.41-.72,2.18-.89Z"/><path class="cls-1" d="M620.93,112.5c1.85-4.94,2.56-9.16,2.13-12.65,8.93,3.45,22.41,6.58,40.43,9.39l23.6,23.17-1.42,3.8-25.91-11.15c-.06-.3-.15-.61-.28-.94-.12-.32-.41-.71-.87-1.16-.33-.33-.72-.58-1.18-.75-.46-.17-.92-.24-1.38-.21-.5.02-.97.12-1.42.3-.41.16-.79.45-1.16.87-.33.33-.59.74-.77,1.22-.18.49-.26.96-.22,1.43.04.64.14,1.11.3,1.42.22.43.51.82.87,1.16.33.33.72.58,1.18.75.46.17.92.24,1.38.2.64-.04,1.11-.14,1.42-.3.3-.16.58-.34.82-.53l26.87,8.59-1.42,3.8-33.01,1.98c-15.45-9.71-27.67-16.19-36.67-19.46,2.62-2.36,4.85-6,6.7-10.94ZM625.65,114.26c-.79,2.1-2.04,4.38-3.76,6.83,5.28,1.87,15.52,7.62,30.72,17.23l23.24-.95-16.69-4.99c-.91.39-1.85.61-2.81.67-.92.04-1.85-.12-2.79-.47-.95-.35-1.75-.85-2.42-1.48-.69-.67-1.25-1.46-1.68-2.35-.41-.95-.63-1.89-.67-2.81-.03-.95.14-1.9.49-2.84.35-.94.85-1.77,1.5-2.46.63-.67,1.41-1.23,2.35-1.68.91-.39,1.85-.61,2.81-.67.92-.04,1.85.12,2.79.47.94.35,1.75.85,2.42,1.48.69.67,1.25,1.46,1.68,2.35l15.87,7.19-16.91-15.97c-17.78-2.73-29.28-5.12-34.49-7.17-.31,2.98-.86,5.52-1.65,7.62Z"/><path class="cls-1" d="M718.02,141.51c-.24-1.69-.18-3.23.17-4.63.42-1.48,1.04-2.78,1.88-3.9.84-1.12,1.89-2.06,3.15-2.82,1.22-.76,2.55-1.24,4.01-1.45,1.5-.22,2.93-.14,4.29.22,1.38.38,2.66,1.01,3.83,1.89,1.12.84,2.1,1.9,2.93,3.17.74,1.24,1.22,2.69,1.46,4.33,1-1.33,2.11-2.36,3.36-3.1,1.24-.74,2.61-1.2,4.09-1.39,1.44-.18,2.85-.12,4.25.19,1.37.34,2.66.96,3.86,1.85s2.15,1.96,2.86,3.18c.69,1.25,1.15,2.59,1.38,4.02.23,1.48.17,2.92-.18,4.32-.36,1.4-1.03,2.76-2.03,4.09,1.73-.25,3.25-.19,4.56.18,1.46.44,2.75,1.08,3.87,1.92,1.17.88,2.14,1.93,2.89,3.14.73,1.2,1.2,2.55,1.42,4.05.18,1.28.1,2.7-.26,4.26-.34,1.37-.95,2.65-1.82,3.82-.72.96-1.79,1.93-3.21,2.9-1.17.75-2.64,1.24-4.39,1.47,1.43,1.07,2.5,2.2,3.21,3.38.68,1.16,1.13,2.51,1.35,4.06.23,1.6.18,3.02-.15,4.28-.36,1.35-1,2.63-1.89,3.83-.98,1.3-2.02,2.27-3.14,2.89-1.25.69-2.6,1.14-4.06,1.35-1.32.24-2.74.18-4.28-.15-1.45-.35-2.82-1.01-4.12-1.99.22,1.71.15,3.22-.22,4.53-.42,1.48-1.04,2.78-1.88,3.9-.86,1.15-1.91,2.09-3.15,2.82-1.22.76-2.55,1.24-4.01,1.45-1.5.21-2.93.14-4.29-.22-1.38-.38-2.66-1.01-3.83-1.89-1.2-.9-2.18-1.96-2.93-3.17-.74-1.24-1.22-2.68-1.46-4.33-1,1.33-2.11,2.36-3.36,3.1s-2.61,1.2-4.09,1.39c-1.44.18-2.86.12-4.25-.19-1.37-.34-2.66-.96-3.86-1.85-1.2-.9-2.15-1.96-2.86-3.18-.69-1.25-1.15-2.59-1.38-4.02-.24-1.48-.17-2.92.18-4.32.36-1.4,1.03-2.76,2.03-4.09-1.8.24-3.32.17-4.56-.18-1.41-.4-2.7-1.04-3.87-1.92-1.15-.86-2.11-1.91-2.89-3.14-.73-1.2-1.2-2.55-1.42-4.05-.21-1.46-.12-2.88.26-4.26.36-1.4.96-2.67,1.82-3.82.86-1.15,1.93-2.11,3.21-2.9,1.24-.74,2.67-1.23,4.29-1.49-1.3-.98-2.33-2.11-3.07-3.4-.68-1.16-1.13-2.51-1.35-4.06-.23-1.59-.18-3.02.15-4.28.36-1.35,1-2.63,1.89-3.83.98-1.3,2.02-2.27,3.14-2.89,1.25-.69,2.6-1.14,4.06-1.35,1.55-.22,2.97-.17,4.28.15,1.33.34,2.71,1.05,4.14,2.13ZM719.25,171.96c-.31-.68-.54-1.34-.7-1.99l-10.82,2.88c-.54.12-.95.21-1.22.24-.34.07-.73.05-1.16-.08-.41-.1-.81-.28-1.19-.53-.32-.28-.58-.58-.79-.9-.22-.36-.37-.76-.45-1.19-.06-.41-.04-.82.07-1.23.13-.39.31-.77.54-1.12.28-.32.6-.59.97-.8.34-.24.71-.38,1.12-.44.27-.04.69-.05,1.25-.04l11.19-.28c-.03-.72,0-1.43.08-2.14l-10.26-1.28c-1.23-.15-2.17-.18-2.8-.09-.94.11-1.79.41-2.56.89-.77.44-1.46,1.06-2.07,1.87-.54.78-.94,1.61-1.21,2.51-.23.85-.28,1.76-.17,2.74.14.96.45,1.82.93,2.59.48.77,1.1,1.43,1.86,2,.83.62,1.66,1.04,2.48,1.25.89.22,1.81.28,2.74.16.64-.09,1.53-.38,2.67-.87l9.52-4.16ZM719.04,160.83c.27-.69.6-1.34.98-1.95l-9.73-5.58c-.48-.28-.84-.51-1.08-.68-.26-.2-.51-.51-.76-.94-.24-.34-.38-.74-.45-1.19-.01-.42,0-.81.04-1.19.13-.39.33-.77.61-1.13.23-.31.52-.59.86-.82.39-.2.79-.35,1.19-.45.42-.01.84.02,1.27.1.39.13.74.31,1.05.55.24.17.55.46.96.84l8.15,7.69c.48-.53,1-1,1.54-1.41l-6.41-8.22c-.74-.96-1.38-1.64-1.9-2.03-.73-.55-1.53-.94-2.4-1.19-.87-.25-1.81-.3-2.81-.16-.95.18-1.84.5-2.66.94-.73.43-1.39,1.04-1.97,1.82-.58.78-1,1.61-1.25,2.48-.2.91-.23,1.82-.1,2.73.14,1,.46,1.89.94,2.66.44.82,1.03,1.5,1.76,2.05.52.39,1.35.81,2.48,1.25l9.69,3.84ZM727.27,179.74c-.69-.27-1.33-.59-1.92-.95l-5.62,9.7c-.28.48-.5.83-.65,1.04-.21.29-.51.55-.9.79-.37.21-.76.37-1.19.45-.44.04-.85.02-1.23-.07-.41-.1-.79-.28-1.12-.54-.34-.25-.62-.56-.83-.93-.19-.34-.33-.73-.41-1.16-.04-.44,0-.86.1-1.27.08-.38.25-.75.51-1.08.16-.21.43-.51.81-.92l7.73-8.12c-.53-.48-1.02-1.01-1.45-1.57l-8.19,6.37c-.98.77-1.66,1.4-2.03,1.9-.57.76-.96,1.58-1.18,2.47-.23.85-.27,1.77-.12,2.77.16.93.46,1.81.9,2.63.44.77,1.05,1.45,1.83,2.04.78.58,1.6.98,2.47,1.18.91.2,1.83.24,2.77.13,1-.14,1.88-.44,2.63-.9.79-.46,1.47-1.07,2.04-1.83.37-.49.79-1.32,1.25-2.48l3.81-9.65ZM732.27,151.39c.76-.04,1.5-.02,2.21.07l1.27-10.09c.15-1.23.18-2.14.1-2.73-.16-.98-.48-1.86-.94-2.66-.43-.73-1.06-1.41-1.9-2.03-.76-.57-1.57-.97-2.44-1.22-.87-.25-1.79-.3-2.75-.16-.98.16-1.84.47-2.59.93-.79.51-1.48,1.13-2.07,1.87-.61.81-1.01,1.64-1.21,2.51-.25.87-.29,1.8-.13,2.77.08.59.37,1.46.86,2.6l4.06,9.32c.66-.28,1.34-.52,2.06-.71l-2.85-10.61c-.17-.53-.27-.92-.3-1.14-.05-.48-.01-.91.1-1.27.1-.41.27-.79.5-1.15.28-.32.59-.6.93-.83.36-.21.75-.35,1.16-.41.44-.04.86,0,1.27.1.36.11.73.28,1.08.51.42.36.7.69.84,1,.24.38.38.77.41,1.16.03.23.07.62.1,1.17l.22,11.03ZM738.55,158.24c-1.07-.8-2.21-1.35-3.41-1.64-1.25-.29-2.53-.35-3.83-.18-1.36.24-2.57.66-3.62,1.25-1.09.64-2.04,1.5-2.84,2.57-.78,1.04-1.33,2.18-1.64,3.41-.29,1.21-.35,2.48-.18,3.83.21,1.29.63,2.5,1.25,3.62.62,1.07,1.46,2.01,2.53,2.81s2.2,1.35,3.41,1.64c1.25.29,2.53.35,3.83.18,1.34-.22,2.55-.63,3.62-1.25,1.09-.65,2.03-1.49,2.81-2.53.8-1.07,1.36-2.22,1.67-3.45.27-1.18.33-2.45.18-3.83-.21-1.3-.63-2.5-1.25-3.62-.62-1.07-1.46-2.01-2.53-2.81ZM738.44,179.56c-.66.28-1.33.51-2.03.67l2.88,10.82c.17.53.27.94.31,1.21.03.34,0,.75-.11,1.2-.1.41-.27.79-.5,1.15-.28.32-.59.6-.93.83-.36.21-.75.35-1.16.41-.44.04-.86,0-1.27-.1-.37-.11-.73-.28-1.08-.51-.35-.3-.63-.63-.84-1-.21-.32-.34-.68-.4-1.09-.04-.27-.08-.69-.11-1.24l-.28-11.19c-.72.03-1.42,0-2.11-.12l-1.31,10.3c-.15,1.23-.18,2.16-.09,2.8.16.93.47,1.79.93,2.59.43.73,1.06,1.41,1.9,2.03.75.57,1.57.97,2.44,1.22.87.25,1.79.3,2.74.16.98-.16,1.84-.47,2.59-.93.79-.51,1.48-1.13,2.07-1.87.6-.81,1.01-1.64,1.21-2.51.25-.87.29-1.77.13-2.71-.09-.64-.38-1.53-.87-2.67l-4.12-9.49ZM742.83,155.46c.56.5,1.06,1.03,1.49,1.6l8.03-6.25c.98-.77,1.65-1.39,2-1.86.59-.78.99-1.62,1.21-2.51.23-.85.27-1.77.12-2.77-.16-.93-.46-1.81-.9-2.63-.44-.77-1.05-1.45-1.83-2.04-.78-.59-1.61-.98-2.47-1.18-.91-.2-1.84-.24-2.77-.12-1,.14-1.88.44-2.63.9-.79.46-1.48,1.08-2.07,1.87-.35.47-.76,1.28-1.22,2.44l-3.74,9.46c.69.27,1.34.6,1.95.98l5.5-9.54c.28-.48.49-.81.62-1,.29-.39.6-.67.93-.83.36-.21.76-.37,1.19-.45.44-.04.85-.02,1.23.07.41.1.78.28,1.12.54.34.25.62.56.83.93.19.35.33.73.41,1.16.05.53.02.95-.1,1.27-.12.44-.3.81-.54,1.12-.14.18-.4.48-.78.88l-7.61,7.96ZM743.31,176.32c-.52.59-1.05,1.08-1.6,1.49l6.25,8.1c.74.96,1.35,1.62,1.82,1.97.78.59,1.63.98,2.54,1.17.87.25,1.81.3,2.81.15.91-.13,1.78-.42,2.6-.86.77-.48,1.44-1.11,2.03-1.9.58-.78.98-1.58,1.19-2.4.2-.91.25-1.85.16-2.81-.14-1-.46-1.89-.94-2.66-.48-.77-1.11-1.44-1.9-2.03-.47-.35-1.27-.75-2.4-1.19l-9.47-3.8c-.29.72-.62,1.37-.98,1.95l9.51,5.54c.48.28.81.49,1,.62.42.31.72.62.9.92.2.39.35.79.45,1.19.01.42-.02.84-.1,1.27-.13.39-.31.74-.55,1.05-.27.37-.58.66-.92.9-.35.14-.73.27-1.13.37-.55.08-.97.05-1.27-.1-.48-.12-.88-.29-1.19-.53-.18-.14-.48-.4-.88-.78l-7.93-7.65ZM747.42,165.79c.04.76,0,1.49-.11,2.18l10.09,1.27c1.23.15,2.14.18,2.74.1.98-.12,1.86-.42,2.63-.9.77-.44,1.46-1.06,2.07-1.87.54-.77.94-1.61,1.21-2.51.23-.85.28-1.76.17-2.74-.14-.96-.45-1.82-.93-2.59-.48-.77-1.1-1.43-1.86-2-.83-.62-1.66-1.04-2.48-1.25-.89-.22-1.83-.27-2.81-.16-.59.08-1.46.37-2.6.86l-9.32,4.06c.29.7.51,1.4.68,2.1l10.64-2.89c.54-.12.92-.2,1.15-.24.47-.09.89-.07,1.23.07.41.1.81.28,1.19.53.32.28.58.58.79.9.21.37.37.76.45,1.19.06.41.04.82-.07,1.23-.13.39-.31.77-.54,1.12-.34.4-.66.66-.97.8-.41.22-.81.37-1.19.45-.23.03-.62.04-1.18.03l-10.99.25Z"/></svg>